<?xml version="1.0" encoding="UTF-8" standalone="no"?>
<svg
   width="68.198"
   height="91.639"
   viewBox="0 0 68.198 91.639"
   version="1.1"
   id="svg10545"
   sodipodi:docname="company-white.svg"
   inkscape:version="1.1 (c68e22c387, 2021-05-23)"
   xmlns:inkscape="http://www.inkscape.org/namespaces/inkscape"
   xmlns:sodipodi="http://sodipodi.sourceforge.net/DTD/sodipodi-0.dtd"
   xmlns="http://www.w3.org/2000/svg"
   xmlns:svg="http://www.w3.org/2000/svg">
  <sodipodi:namedview
     id="namedview10547"
     pagecolor="#ffffff"
     bordercolor="#666666"
     borderopacity="1.0"
     inkscape:pageshadow="2"
     inkscape:pageopacity="0.0"
     inkscape:pagecheckerboard="0"
     showgrid="false"
     inkscape:zoom="9.5265116"
     inkscape:cx="34.115321"
     inkscape:cy="45.767015"
     inkscape:window-width="2560"
     inkscape:window-height="1334"
     inkscape:window-x="-11"
     inkscape:window-y="-11"
     inkscape:window-maximized="1"
     inkscape:current-layer="svg10545" />
  <defs
     id="defs10517">
    <clipPath
       id="clip-path">
      <rect
         id="Rectangle_1825"
         data-name="Rectangle 1825"
         width="68.198"
         height="91.639"
         transform="translate(0 0)"
         fill="none" />
    </clipPath>
  </defs>
  <g
     id="Groupe_1870"
     data-name="Groupe 1870"
     transform="translate(0 0)">
    <g
       id="Groupe_1869"
       data-name="Groupe 1869">
      <g
         id="Groupe_1868"
         data-name="Groupe 1868"
         clip-path="url(#clip-path)">
        <path
           id="Tracé_1836"
           data-name="Tracé 1836"
           d="M3.226,91.639a1,1,0,0,1-.989-1.146l.478-3.237-2.4-2.229a1,1,0,0,1,.514-1.718l3.227-.546,1.379-2.967a1,1,0,0,1,1.793-.042l1.515,2.9L12,83.048a1,1,0,0,1,.594,1.692L10.3,87.078l.628,3.211A1,1,0,0,1,9.5,91.377L6.573,89.923l-2.861,1.59A1,1,0,0,1,3.226,91.639Zm-.062-6.7,1.3,1.207a1,1,0,0,1,.308.878L4.512,88.78l1.549-.861a1,1,0,0,1,.93-.022l1.587.788-.34-1.739a1,1,0,0,1,.267-.892l1.239-1.266-1.759-.214a1,1,0,0,1-.766-.53l-.82-1.57-.747,1.606a1,1,0,0,1-.74.564Z"
           fill="#70c3ee" />
        <path
           id="Tracé_1837"
           data-name="Tracé 1837"
           d="M17.057,91.639a1,1,0,0,1-.989-1.146l.478-3.237-2.4-2.229a1,1,0,0,1,.514-1.718l3.227-.546,1.379-2.967a1,1,0,0,1,1.793-.042l1.515,2.9,3.249.395a1,1,0,0,1,.594,1.692l-2.289,2.338.628,3.211a1,1,0,0,1-1.426,1.088L20.4,89.923l-2.861,1.59A1,1,0,0,1,17.057,91.639ZM17,84.942l1.3,1.207a1,1,0,0,1,.308.878l-.259,1.753,1.549-.861a1,1,0,0,1,.93-.022l1.587.788-.34-1.739a1,1,0,0,1,.267-.892l1.239-1.266-1.759-.214a1,1,0,0,1-.766-.53l-.82-1.57-.747,1.606a1,1,0,0,1-.74.564Z"
           fill="#70c3ee" />
        <path
           id="Tracé_1838"
           data-name="Tracé 1838"
           d="M30.887,91.639a1,1,0,0,1-.989-1.146l.478-3.237-2.4-2.229a1,1,0,0,1,.514-1.718l3.227-.546L33.1,79.795a1,1,0,0,1,1.793-.042l1.515,2.9,3.249.395a1,1,0,0,1,.594,1.692l-2.289,2.338.628,3.211a1,1,0,0,1-1.426,1.088l-2.931-1.454-2.861,1.59A1,1,0,0,1,30.887,91.639Zm-.062-6.7,1.3,1.207a1,1,0,0,1,.308.878l-.259,1.753,1.549-.861a1,1,0,0,1,.93-.022l1.587.788-.34-1.739a1,1,0,0,1,.267-.892l1.239-1.266-1.759-.214a1,1,0,0,1-.766-.53l-.82-1.57-.747,1.606a1,1,0,0,1-.74.564Z"
           fill="#70c3ee" />
        <path
           id="Tracé_1839"
           data-name="Tracé 1839"
           d="M44.718,91.639a1,1,0,0,1-.989-1.146l.478-3.237-2.4-2.229a1,1,0,0,1,.514-1.718l3.227-.546,1.379-2.967a1,1,0,0,1,1.793-.042l1.515,2.9,3.249.395a1,1,0,0,1,.594,1.692l-2.289,2.338.628,3.211A1,1,0,0,1,51,91.377l-2.931-1.454L45.2,91.513A1,1,0,0,1,44.718,91.639Zm-.062-6.7,1.3,1.207a1,1,0,0,1,.308.878L46,88.78l1.549-.861a1,1,0,0,1,.93-.022l1.587.788-.34-1.739A1,1,0,0,1,50,86.055l1.239-1.266-1.759-.214a1,1,0,0,1-.766-.53l-.82-1.57-.747,1.606a1,1,0,0,1-.74.564Z"
           fill="#70c3ee" />
        <path
           id="Tracé_1840"
           data-name="Tracé 1840"
           d="M58.548,91.639a1,1,0,0,1-.989-1.146l.478-3.237-2.4-2.229a1,1,0,0,1,.514-1.718l3.227-.546,1.379-2.967a1,1,0,0,1,1.793-.042l1.515,2.9,3.249.395a1,1,0,0,1,.594,1.692l-2.289,2.338.628,3.211a1,1,0,0,1-1.426,1.088l-2.931-1.454-2.861,1.59A1,1,0,0,1,58.548,91.639Zm-.062-6.7,1.3,1.207a1,1,0,0,1,.308.878l-.259,1.753,1.549-.861a1,1,0,0,1,.93-.022l1.587.788-.34-1.739a1,1,0,0,1,.267-.892l1.239-1.266-1.759-.214a1,1,0,0,1-.766-.53l-.82-1.57-.747,1.606a1,1,0,0,1-.74.564Z"
           fill="#70c3ee" />
        <path
           id="Tracé_1841"
           data-name="Tracé 1841"
           d="M65.946,75.1H2.267a1,1,0,1,1,0-2H65.946a1,1,0,0,1,0,2Z"
           fill="#ffffff" />
        <path
           id="Rectangle_1824"
           data-name="Rectangle 1824"
           d="M0-1H37.541a1,1,0,0,1,1,1V72.911a1,1,0,0,1-1,1H0a1,1,0,0,1-1-1V0A1,1,0,0,1,0-1ZM36.541,1H1V71.911H36.541Z"
           transform="translate(14.732 0.999)"
           fill="#ffffff" />
      </g>
    </g>
    <path
       id="Rectangle_1826"
       data-name="Rectangle 1826"
       d="M0-1H8.9a1,1,0,0,1,1,1V12.392a1,1,0,0,1-1,1H0a1,1,0,0,1-1-1V0A1,1,0,0,1,0-1ZM7.9,1H1V11.392H7.9Z"
       transform="translate(29.051 61.44)"
       fill="#ffffff" />
    <path
       id="Ligne_264"
       data-name="Ligne 264"
       d="M0,4.411a1,1,0,0,1-1-1V0A1,1,0,0,1,0-1,1,1,0,0,1,1,0V3.411A1,1,0,0,1,0,4.411Z"
       transform="translate(24.03 10.206)"
       fill="#ffffff" />
    <path
       id="Ligne_265"
       data-name="Ligne 265"
       d="M0,4.411a1,1,0,0,1-1-1V0A1,1,0,0,1,0-1,1,1,0,0,1,1,0V3.411A1,1,0,0,1,0,4.411Z"
       transform="translate(33.67 10.206)"
       fill="#ffffff" />
    <path
       id="Ligne_266"
       data-name="Ligne 266"
       d="M0,4.411a1,1,0,0,1-1-1V0A1,1,0,0,1,0-1,1,1,0,0,1,1,0V3.411A1,1,0,0,1,0,4.411Z"
       transform="translate(43.31 10.206)"
       fill="#ffffff" />
    <path
       id="Ligne_267"
       data-name="Ligne 267"
       d="M0,4.411a1,1,0,0,1-1-1V0A1,1,0,0,1,0-1,1,1,0,0,1,1,0V3.411A1,1,0,0,1,0,4.411Z"
       transform="translate(24.03 20.696)"
       fill="#ffffff" />
    <path
       id="Ligne_268"
       data-name="Ligne 268"
       d="M0,4.411a1,1,0,0,1-1-1V0A1,1,0,0,1,0-1,1,1,0,0,1,1,0V3.411A1,1,0,0,1,0,4.411Z"
       transform="translate(33.67 20.696)"
       fill="#ffffff" />
    <path
       id="Ligne_269"
       data-name="Ligne 269"
       d="M0,4.411a1,1,0,0,1-1-1V0A1,1,0,0,1,0-1,1,1,0,0,1,1,0V3.411A1,1,0,0,1,0,4.411Z"
       transform="translate(43.31 20.696)"
       fill="#ffffff" />
    <path
       id="Ligne_270"
       data-name="Ligne 270"
       d="M0,4.411a1,1,0,0,1-1-1V0A1,1,0,0,1,0-1,1,1,0,0,1,1,0V3.411A1,1,0,0,1,0,4.411Z"
       transform="translate(24.03 31.187)"
       fill="#ffffff" />
    <path
       id="Ligne_271"
       data-name="Ligne 271"
       d="M0,4.411a1,1,0,0,1-1-1V0A1,1,0,0,1,0-1,1,1,0,0,1,1,0V3.411A1,1,0,0,1,0,4.411Z"
       transform="translate(33.67 31.187)"
       fill="#ffffff" />
    <path
       id="Ligne_272"
       data-name="Ligne 272"
       d="M0,4.411a1,1,0,0,1-1-1V0A1,1,0,0,1,0-1,1,1,0,0,1,1,0V3.411A1,1,0,0,1,0,4.411Z"
       transform="translate(43.31 31.187)"
       fill="#ffffff" />
    <path
       id="Ligne_273"
       data-name="Ligne 273"
       d="M0,4.411a1,1,0,0,1-1-1V0A1,1,0,0,1,0-1,1,1,0,0,1,1,0V3.411A1,1,0,0,1,0,4.411Z"
       transform="translate(24.03 41.678)"
       fill="#ffffff" />
    <path
       id="Ligne_274"
       data-name="Ligne 274"
       d="M0,4.411a1,1,0,0,1-1-1V0A1,1,0,0,1,0-1,1,1,0,0,1,1,0V3.411A1,1,0,0,1,0,4.411Z"
       transform="translate(33.67 41.678)"
       fill="#ffffff" />
    <path
       id="Ligne_275"
       data-name="Ligne 275"
       d="M0,4.411a1,1,0,0,1-1-1V0A1,1,0,0,1,0-1,1,1,0,0,1,1,0V3.411A1,1,0,0,1,0,4.411Z"
       transform="translate(43.31 41.678)"
       fill="#ffffff" />
    <path
       id="Ligne_276"
       data-name="Ligne 276"
       d="M0,4.411a1,1,0,0,1-1-1V0A1,1,0,0,1,0-1,1,1,0,0,1,1,0V3.411A1,1,0,0,1,0,4.411Z"
       transform="translate(24.03 52.168)"
       fill="#ffffff" />
    <path
       id="Ligne_277"
       data-name="Ligne 277"
       d="M0,4.411a1,1,0,0,1-1-1V0A1,1,0,0,1,0-1,1,1,0,0,1,1,0V3.411A1,1,0,0,1,0,4.411Z"
       transform="translate(33.67 52.168)"
       fill="#ffffff" />
    <path
       id="Ligne_278"
       data-name="Ligne 278"
       d="M0,4.411a1,1,0,0,1-1-1V0A1,1,0,0,1,0-1,1,1,0,0,1,1,0V3.411A1,1,0,0,1,0,4.411Z"
       transform="translate(43.31 52.168)"
       fill="#ffffff" />
  </g>
</svg>
